<svg width="96" height="96" viewBox="0 0 96 96" fill="none" xmlns="http://www.w3.org/2000/svg">
    <rect width="96" height="96" rx="48" fill="#2C3590"/>
    <path d="M21 60.058V58a3 3 0 0 1 3-3h3a3 3 0 0 1 3 3v1.086a3 3 0 0 1-1.419 2.55l-6.468 4.011a2.353 2.353 0 0 0-1.113 2v0c0 1.3 1.054 2.353 2.353 2.353H28a2 2 0 0 0 2-2v-.442M34 56v5.713a2 2 0 0 0 2 2h3a3 3 0 0 0 3-3V56v14" stroke="#fff" stroke-width="2" stroke-linecap="round" stroke-linejoin="round"/>
    <path d="M48 72.967c13.79 0 24.967-11.178 24.967-24.967 0-13.789-11.178-24.967-24.967-24.967-13.789 0-24.967 11.178-24.967 24.967" stroke="#fff" stroke-width="2" stroke-linecap="round" stroke-linejoin="round"/>
    <path d="M28.055 46.5C28.822 36.155 37.46 28 48 28c11.046 0 20 8.954 20 20 0 10.541-8.155 19.178-18.5 19.945" stroke="#fff" stroke-width="2" stroke-linecap="round" stroke-linejoin="round"/>
    <path d="M49 69.978C60.686 69.455 70 59.815 70 48c0-12.15-9.85-22-22-22-11.646 0-21.179 9.05-21.95 20.5" stroke="#fff" stroke-opacity=".2" stroke-width="4" stroke-linecap="round" stroke-linejoin="round"/>
    <circle r="2.5" transform="matrix(1 0 0 -1 47.5 48.5)" stroke="#fff" stroke-width="2" stroke-linecap="round" stroke-linejoin="round"/>
    <path d="m47 42 .647-9L48 42h-1zM54 48l6 .552L54 49v-1z" stroke="#fff" stroke-width="2" stroke-linecap="round" stroke-linejoin="round"/>
</svg>
