<svg width="16" height="16" viewBox="0 0 16 16" fill="none" xmlns="http://www.w3.org/2000/svg">
<path fill-rule="evenodd" clip-rule="evenodd" d="M7.99971 9.20483C9.19971 7.76489 10.6338 6.53631 12.2425 5.57111L12.757 6.42861C11.1545 7.39008 9.73628 8.62954 8.56886 10.0888L8.39014 10.3122L7.99971 10.8002L7.60928 10.3122L7.43056 10.0888C6.26314 8.62954 4.84492 7.39008 3.24246 6.42861L3.75696 5.57111C5.36562 6.53631 6.79971 7.76489 7.99971 9.20483Z" fill="#454866"/>
<path d="M12.2425 5.57111L12.6712 5.31386L12.414 4.88512L11.9852 5.14237L12.2425 5.57111ZM7.99971 9.20483L7.61561 9.52493L7.99971 9.98584L8.38381 9.52493L7.99971 9.20483ZM12.757 6.42861L13.0142 6.85735L13.443 6.6001L13.1857 6.17136L12.757 6.42861ZM8.56886 10.0888L8.95929 10.4012L8.9593 10.4012L8.56886 10.0888ZM8.39014 10.3122L7.99971 9.99986L7.99971 9.99986L8.39014 10.3122ZM7.99971 10.8002L7.60928 11.1126L7.99971 11.6006L8.39014 11.1126L7.99971 10.8002ZM7.60928 10.3122L7.99971 9.99986L7.99971 9.99986L7.60928 10.3122ZM7.43056 10.0888L7.82099 9.77646L7.82099 9.77646L7.43056 10.0888ZM3.24246 6.42861L2.81372 6.17136L2.55647 6.6001L2.98521 6.85735L3.24246 6.42861ZM3.75696 5.57111L4.01421 5.14237L3.58546 4.88512L3.32821 5.31386L3.75696 5.57111ZM11.9852 5.14237C10.3285 6.13642 8.85148 7.40174 7.61561 8.88473L8.38381 9.52493C9.54793 8.12804 10.9391 6.9362 12.4997 5.99986L11.9852 5.14237ZM13.1857 6.17136L12.6712 5.31386L11.8137 5.82836L12.3282 6.68585L13.1857 6.17136ZM8.9593 10.4012C10.0896 8.9883 11.4627 7.78825 13.0142 6.85735L12.4997 5.99986C10.8463 6.99191 9.38297 8.27079 8.17843 9.77646L8.9593 10.4012ZM8.78058 10.6246L8.95929 10.4012L8.17843 9.77646L7.99971 9.99986L8.78058 10.6246ZM8.39014 11.1126L8.78058 10.6246L7.99971 9.99986L7.60928 10.4879L8.39014 11.1126ZM7.21884 10.6246L7.60928 11.1126L8.39014 10.4879L7.99971 9.99986L7.21884 10.6246ZM7.04013 10.4012L7.21884 10.6246L7.99971 9.99986L7.82099 9.77646L7.04013 10.4012ZM2.98521 6.85735C4.53672 7.78825 5.90984 8.9883 7.04013 10.4012L7.82099 9.77646C6.61645 8.27079 5.15313 6.99191 3.49971 5.99986L2.98521 6.85735ZM3.32821 5.31386L2.81372 6.17136L3.67121 6.68585L4.1857 5.82836L3.32821 5.31386ZM8.38381 8.88473C7.14793 7.40174 5.67096 6.13642 4.01421 5.14237L3.49971 5.99986C5.06027 6.9362 6.45149 8.12804 7.61561 9.52493L8.38381 8.88473Z" fill="#454866"/>
</svg>
