<svg width="16" height="16" viewBox="0 0 16 16" fill="none" xmlns="http://www.w3.org/2000/svg">
    <path fill-rule="evenodd" clip-rule="evenodd" d="M12.632 7.5a16.724 16.724 0 0 1-3.06-3.743l.857-.514a15.723 15.723 0 0 0 3.66 4.188l.223.179.488.39-.488.39-.223.18a15.722 15.722 0 0 0-3.66 4.187l-.858-.514A16.724 16.724 0 0 1 12.632 8.5H2v-1h10.632z" fill="#2C3590"/>
    <path d="M12.632 7.5V8h1.289l-.952-.87-.337.37zm-3.06-3.743-.258-.428-.429.257.258.429.428-.258zm.857-.514.428-.257-.257-.43-.428.258.257.429zm3.66 4.188.312-.39-.312.39zm.223.179L14 8l.312-.39zM14.8 8l.313.39L15.6 8l-.488-.39L14.8 8zm-.488.39.313.39-.313-.39zm-.223.18-.312-.391.312.39zm-3.66 4.187-.258.429.43.257.256-.428-.428-.258zm-.858-.514-.428-.258-.258.43.429.257.257-.43zM12.632 8.5l.337.37.952-.87h-1.289v.5zM2 8.5h-.5V9H2v-.5zm0-1V7h-.5v.5H2zm10.97-.37A16.223 16.223 0 0 1 10 3.5l-.857.515a17.221 17.221 0 0 0 3.152 3.854l.674-.738zM9.827 4.187l.858-.514-.514-.858-.858.515.514.857zM10 3.5a16.223 16.223 0 0 0 3.777 4.321l.624-.78a15.222 15.222 0 0 1-3.543-4.055L10 3.5zm3.777 4.321.223.18.625-.782-.224-.179-.624.781zm.223.18.488.39.625-.781-.488-.39L14 8zm.488-.391L14 8l.625.78.488-.39-.625-.78zM14 8l-.223.179.624.78.224-.178L14 8zm-.223.179A16.223 16.223 0 0 0 10 12.5l.857.514a15.222 15.222 0 0 1 3.544-4.054l-.624-.781zm-3.091 4.15-.857-.515-.515.857.857.515.515-.857zM10 12.5c.81-1.35 1.81-2.572 2.97-3.63l-.675-.74a17.221 17.221 0 0 0-3.152 3.855L10 12.5zM12.632 8H2v1h10.632V8zM2.5 8.5v-1h-1v1h1zM2 8h10.632V7H2v1z" fill="#2C3590"/>
</svg>
