<svg width="96" height="96" viewBox="0 0 96 96" fill="none" xmlns="http://www.w3.org/2000/svg">
    <path opacity=".2" d="M35 54H19.855a1 1 0 0 1-.835-1.55l22.145-33.66c.545-.83 1.835-.443 1.835.55V47a1 1 0 0 0 1 1h11.785a1 1 0 0 1 .87 1.492L37.87 82.694c-.506.895-1.87.536-1.87-.492V55a1 1 0 0 0-1-1z" fill="#2C3590"/>
    <path d="M35 54H19.855a1 1 0 0 1-.835-1.55l22.145-33.66c.545-.83 1.835-.443 1.835.55V47a1 1 0 0 0 1 1h11.785a1 1 0 0 1 .87 1.492L37.87 82.694c-.506.895-1.87.536-1.87-.492V55a1 1 0 0 0-1-1zM57 33.523v-1.666a2.429 2.429 0 0 1 2.429-2.428h2.428a2.429 2.429 0 0 1 2.429 2.428v.88c0 .84-.435 1.62-1.149 2.063l-5.236 3.248c-.56.347-.901.96-.901 1.618v0c0 1.053.853 1.905 1.905 1.905h3.762c.894 0 1.619-.724 1.619-1.619v-.357M67.524 30.238v4.625c0 .894.725 1.619 1.619 1.619h2.428a2.429 2.429 0 0 0 2.43-2.428v-3.816 11.333" stroke="#2C3590" stroke-width="2" stroke-linecap="round" stroke-linejoin="round"/>
    <circle cx="65.5" cy="35.5" r="15.5" stroke="#2C3590" stroke-width="2" stroke-linecap="round" stroke-linejoin="round"/>
</svg>
