<svg width="96" height="96" viewBox="0 0 96 96" fill="none" xmlns="http://www.w3.org/2000/svg">
    <rect x="29.87" y="23.13" width="42.956" height="52.87" rx="2" stroke="#2C3590" stroke-width="2" stroke-linecap="round" stroke-linejoin="round"/>
    <path d="M33.174 23.13V21a2 2 0 0 1 2-2h39.957a2 2 0 0 1 2 2v48.87a2 2 0 0 1-2 2h-2.305" stroke="#2C3590" stroke-width="2" stroke-linecap="round" stroke-linejoin="round"/>
    <path opacity=".2" d="M75.13 19H35.175a2 2 0 0 0-2 2v.13a2 2 0 0 0 2 2h35.652a2 2 0 0 1 2 2v44.74a2 2 0 0 0 2 2h.305a2 2 0 0 0 2-2V21a2 2 0 0 0-2-2z" fill="#2C3590"/>
    <path d="M38.956 33.87h25.61M38.956 40.065h25.61M38.956 46.26h25.61M38.956 52.456h19.61M38.956 58.652h25.61M38.956 64.848h17.61M15.357 45.425l-2.294-4.436a1.943 1.943 0 0 0-.936-.882c-1.262-.562-2.652.337-2.524 1.713.187 1.999.646 4.676 1.76 6.83 1.469 2.84 5.195 3.22 7.205 3.206.81-.005 1.597.384 2 1.086L29.6 68.67v-9.538a2 2 0 0 0-.212-.896l-4.093-8.16c-.273-.545-.284-1.184.03-1.705 1.204-1.995 3.45-4.973 1.918-7.935-1.09-2.109-2.724-4.252-4.538-5.725-1.033-.84-2.394-.04-2.478 1.288-.022.35.051.699.212 1.01l2.325 4.495a2 2 0 0 1-.056 1.939l-1.44 2.43a2 2 0 0 1-2.006.96l-2.415-.348a2 2 0 0 1-1.491-1.06z" stroke="#2C3590" stroke-width="2" stroke-linecap="round" stroke-linejoin="round"/>
</svg>
