<svg width="96" height="96" viewBox="0 0 96 96" fill="none" xmlns="http://www.w3.org/2000/svg">
    <rect width="96" height="96" rx="48" fill="#2C3590"/>
    <circle cx="48" cy="48" r="24.967" stroke="#fff" stroke-width="2" stroke-linecap="round" stroke-linejoin="round"/>
    <circle cx="48" cy="48" r="16.832" stroke="#fff" stroke-width="2" stroke-linecap="round" stroke-linejoin="round"/>
    <circle cx="48" cy="48" r="13" stroke="#fff" stroke-opacity=".2" stroke-width="4" stroke-linecap="round" stroke-linejoin="round"/>
    <path fill-rule="evenodd" clip-rule="evenodd" d="M48 21a1 1 0 0 1 1 1v5.5a20.86 20.86 0 0 0-2 0V22a1 1 0 0 1 1-1zm4.545 6.982a20.444 20.444 0 0 0-1.97-.345l.955-5.416a1 1 0 0 1 1.97.348l-.955 5.413zm3.408 1.092a20.339 20.339 0 0 0-1.88-.684l1.88-5.164a1 1 0 0 1 1.88.684l-1.88 5.164zm1.433.67c.594.306 1.172.64 1.73 1.001l2.75-4.762a1 1 0 1 0-1.732-1l-2.748 4.76zm3.025 1.91a20.66 20.66 0 0 1 1.532 1.286l3.535-4.214a1 1 0 1 0-1.532-1.286l-3.535 4.213zm2.65 2.403c.452.49.882 1 1.286 1.532l4.213-3.535a1 1 0 0 0-1.286-1.533l-4.214 3.536zm2.194 2.826c.36.56.695 1.137 1.001 1.731l4.76-2.748a1 1 0 0 0-1-1.732l-4.761 2.75zm1.67 3.164c.258.612.487 1.24.685 1.88l5.164-1.88a1 1 0 0 0-.684-1.88l-5.164 1.88zm1.093 3.408c.146.645.262 1.303.345 1.97l5.416-.955a1 1 0 0 0-.348-1.97l-5.413.955zM68.5 47a20.86 20.86 0 0 1 0 2H74a1 1 0 1 0 0-2h-5.5zm-.48 5.545c.145-.645.26-1.303.344-1.97l5.416.955a1 1 0 0 1-.348 1.97l-5.413-.955zm-1.093 3.408c.257-.612.486-1.24.684-1.88l5.164 1.88a1 1 0 0 1-.684 1.88l-5.164-1.88zm-1.671 3.164c.36-.56.695-1.137 1.001-1.731l4.76 2.748a1 1 0 0 1-1 1.732l-4.761-2.75zm-2.195 2.826c.453-.49.883-1 1.287-1.532l4.213 3.535a1 1 0 0 1-1.286 1.532l-4.214-3.535zm-2.649 2.404a20.64 20.64 0 0 0 1.532-1.287l3.535 4.214a1 1 0 1 1-1.532 1.286l-3.535-4.213zm-3.025 1.91c.594-.307 1.172-.641 1.73-1.002l2.75 4.762a1 1 0 1 1-1.732 1l-2.748-4.76zm-3.313 1.353c.64-.198 1.268-.427 1.88-.684l1.88 5.164a1 1 0 1 1-1.88.684l-1.88-5.164zm-3.498.753c.667-.083 1.325-.199 1.97-.345l.955 5.413a1 1 0 0 1-1.97.348l-.955-5.416zM49 68.5c-.31.015-.623.023-.937.024H48c-.335 0-.669-.008-1-.024V74a1 1 0 1 0 2 0v-5.5zm-3.575-.136a20.444 20.444 0 0 1-1.97-.345l-.955 5.413a1 1 0 0 0 1.97.348l.955-5.416zm-3.498-.753a20.339 20.339 0 0 1-1.88-.684l-1.88 5.164a1 1 0 1 0 1.88.684l1.88-5.164zm-3.313-1.354a20.524 20.524 0 0 1-1.73-1.001l-2.75 4.762a1 1 0 1 0 1.732 1l2.748-4.76zm-3.025-1.91a20.66 20.66 0 0 1-1.532-1.286l-3.536 4.214a1 1 0 1 0 1.533 1.286l3.535-4.213zm-2.65-2.403c-.452-.49-.882-1-1.286-1.532l-4.213 3.535a1 1 0 0 0 1.286 1.532l4.214-3.535zm-2.194-2.826a20.524 20.524 0 0 1-1.001-1.731l-4.76 2.748a1 1 0 0 0 1 1.732l4.761-2.75zm-1.67-3.164a20.339 20.339 0 0 1-.685-1.88l-5.164 1.88a1 1 0 0 0 .684 1.88l5.164-1.88zm-1.438-5.378c.083.667.199 1.325.345 1.97l-5.413.955a1 1 0 0 1-.348-1.97l5.416-.955zM27.477 48c0 .335.008.669.024 1H22a1 1 0 1 1 0-2h5.5a20.86 20.86 0 0 0-.023 1zm.505-4.545a20.444 20.444 0 0 0-.345 1.97l-5.416-.955a1 1 0 0 1 .348-1.97l5.413.955zm1.092-3.408a20.339 20.339 0 0 0-.684 1.88l-5.164-1.88a1 1 0 0 1 .684-1.88l5.164 1.88zm1.671-3.164c-.36.56-.695 1.137-1.001 1.731l-4.76-2.748a1 1 0 0 1 1-1.732l4.761 2.75zm2.195-2.826c-.453.49-.883 1-1.287 1.532l-4.213-3.535a1 1 0 0 1 1.286-1.533l4.214 3.536zm2.649-2.404a20.66 20.66 0 0 0-1.532 1.287l-3.536-4.214a1 1 0 1 1 1.533-1.286l3.535 4.213zm3.025-1.91c-.594.307-1.172.641-1.73 1.002l-2.75-4.762a1 1 0 1 1 1.732-1l2.748 4.76zm3.313-1.353c-.64.198-1.268.427-1.88.684l-1.88-5.164a1 1 0 1 1 1.88-.684l1.88 5.164zm3.498-.753c-.667.083-1.325.199-1.97.345l-.955-5.413a1 1 0 0 1 1.97-.348l.955 5.416z" fill="#fff"/>
    <path d="M52.5 45v-.5a2 2 0 0 0-2-2H45a2 2 0 0 0-2 2v2a2 2 0 0 0 2 2h5.5a2 2 0 0 1 2 2v2a2 2 0 0 1-2 2H45a2 2 0 0 1-2-2V52M48 40.5V56" stroke="#fff" stroke-width="2" stroke-linecap="round" stroke-linejoin="round"/>
</svg>
