<svg width="24" height="25" viewBox="0 0 24 25" fill="none" xmlns="http://www.w3.org/2000/svg">
    <path d="m9.503 4.757-.929.372.929-.372zm1.054 2.636.929-.372-.929.372zm-.32 2.023.768.64-.768-.64zm-.568.68.768.641-.768-.64zm.122 2.695-.707.708.707-.708zm1.918 1.918.707-.708-.707.708zm2.694.122-.64-.768.64.768zm.681-.568.64.769-.64-.769zm2.023-.32-.371.928.371-.928zm2.636 1.054.371-.928-.371.928zM4.895 4.5h2.75v-2h-2.75v2zm3.68.629 1.054 2.635 1.857-.743-1.055-2.635-1.857.743zm.893 3.647-.567.68 1.537 1.281.567-.68-1.537-1.281zm-.384 4.723 1.917 1.917L12.416 14l-1.917-1.917L9.084 13.5zm5.96 2.1.68-.567-1.28-1.537-.681.568 1.28 1.536zm1.692-.728 2.635 1.055.743-1.857-2.636-1.055-.742 1.857zM20 16.854v2.751h2v-2.75h-2zm-.895 3.646C10.763 20.5 4 13.737 4 5.395H2C2 14.842 9.658 22.5 19.105 22.5v-2zm.895-.895c0 .494-.4.895-.895.895v2A2.895 2.895 0 0 0 22 19.605h-2zm-.629-3.68a1 1 0 0 1 .629.93h2a3 3 0 0 0-1.886-2.786l-.743 1.857zm-3.647-.893a1 1 0 0 1 1.012-.16l.742-1.858a3 3 0 0 0-3.034.481l1.28 1.537zm-4.723.384a3 3 0 0 0 4.042.183l-1.28-1.537a1 1 0 0 1-1.347-.06L11 15.415zm-2.1-5.96a3 3 0 0 0 .183 4.043l1.415-1.415a1 1 0 0 1-.062-1.347l-1.536-1.28zm.728-1.692a1 1 0 0 1-.16 1.012l1.536 1.28a3 3 0 0 0 .48-3.035l-1.856.743zM7.646 4.5a1 1 0 0 1 .928.629l1.857-.743A3 3 0 0 0 7.646 2.5v2zm-2.751-2A2.895 2.895 0 0 0 2 5.395h2c0-.494.4-.895.895-.895v-2z" fill="#fff"/>
</svg>
