<svg width="96" height="96" viewBox="0 0 96 96" fill="none" xmlns="http://www.w3.org/2000/svg">
    <rect width="96" height="96" rx="48" fill="#2C3590"/>
    <path opacity=".5" d="M45 39h7v29h-9V41a2 2 0 0 1 2-2z" fill="#fff"/>
    <path d="M43 68V38.987h9.07V68 29H69v39M43 53H28v15M28 53l7.5-8.5L43 53M18.5 68.5h58M56 39h9M56 44h9M56 49h9M56 54h9M56 59h9M56 64h9M31.5 57h8M31.5 61h8M31.5 65h8M48 62v3" stroke="#fff" stroke-width="2" stroke-linecap="round" stroke-linejoin="round"/>
    <circle cx="29.5" cy="32.5" r="3.5" stroke="#fff" stroke-width="2" stroke-linecap="round" stroke-linejoin="round"/>
</svg>
