<svg width="96" height="96" viewBox="0 0 96 96" fill="none" xmlns="http://www.w3.org/2000/svg">
    <path d="M9.5 77.513H86M14.822 76.848V32.944h66.522v43.904M14.822 32.944l33.26-19.957 33.262 19.956" stroke="#2C3590" stroke-width="2" stroke-linecap="round" stroke-linejoin="round"/>
    <path d="M25.465 76.848V43.587H70.7v33.26" stroke="#2C3590" stroke-width="2" stroke-linecap="round" stroke-linejoin="round"/>
    <path opacity=".2" d="M25.465 77.513H14.822v-44.57h66.522v44.57H70.7V43.587H25.465v33.926z" fill="#2C3590" stroke="#2C3590" stroke-width="2" stroke-linecap="round" stroke-linejoin="round"/>
    <circle cx="36.108" cy="68.865" r="5.322" stroke="#2C3590" stroke-width="2" stroke-linecap="round" stroke-linejoin="round"/>
    <circle cx="36.108" cy="56.891" r="5.322" stroke="#2C3590" stroke-width="2" stroke-linecap="round" stroke-linejoin="round"/>
    <circle cx="36" cy="57" r="2" stroke="#2C3590" stroke-width="2" stroke-linecap="round" stroke-linejoin="round"/>
    <circle cx="48" cy="57" r="2" stroke="#2C3590" stroke-width="2" stroke-linecap="round" stroke-linejoin="round"/>
    <circle cx="36" cy="69" r="2" stroke="#2C3590" stroke-width="2" stroke-linecap="round" stroke-linejoin="round"/>
    <circle cx="48" cy="69" r="2" stroke="#2C3590" stroke-width="2" stroke-linecap="round" stroke-linejoin="round"/>
    <circle cx="60" cy="69" r="2" stroke="#2C3590" stroke-width="2" stroke-linecap="round" stroke-linejoin="round"/>
    <circle cx="48.083" cy="68.865" r="5.322" stroke="#2C3590" stroke-width="2" stroke-linecap="round" stroke-linejoin="round"/>
    <circle cx="48.083" cy="56.891" r="5.322" stroke="#2C3590" stroke-width="2" stroke-linecap="round" stroke-linejoin="round"/>
    <circle cx="60.056" cy="68.865" r="5.322" stroke="#2C3590" stroke-width="2" stroke-linecap="round" stroke-linejoin="round"/>
</svg>
