<svg width="375" height="504" viewBox="0 0 375 504" fill="none" xmlns="http://www.w3.org/2000/svg">
    <g opacity=".2" fill="#EBEBEB">
        <rect x="424.042" y="234.83" width="23.86" height="61.914" rx="6.486" transform="rotate(150 424.042 234.83)"/>
        <rect x="387.355" y="229.615" width="23.86" height="61.914" rx="6.486" transform="rotate(60 387.355 229.615)"/>
    </g>
    <g opacity=".2" fill="#EBEBEB">
        <rect x="381.324" y="223.384" width="23.86" height="61.914" rx="6.486" transform="rotate(150 381.324 223.384)"/>
        <rect x="344.638" y="218.169" width="23.86" height="61.914" rx="6.486" transform="rotate(60 344.638 218.169)"/>
    </g>
    <g opacity=".2" fill="#EBEBEB">
        <rect x="338.607" y="211.938" width="23.86" height="61.914" rx="6.486" transform="rotate(150 338.607 211.938)"/>
        <rect x="301.921" y="206.723" width="23.86" height="61.914" rx="6.486" transform="rotate(60 301.921 206.723)"/>
    </g>
    <g opacity=".2" fill="#EBEBEB">
        <rect x="295.89" y="200.492" width="23.86" height="61.914" rx="6.486" transform="rotate(150 295.89 200.492)"/>
        <rect x="259.203" y="195.277" width="23.86" height="61.914" rx="6.486" transform="rotate(60 259.203 195.277)"/>
    </g>
    <g opacity=".2" fill="#EBEBEB">
        <rect x="253.173" y="189.046" width="23.86" height="61.914" rx="6.486" transform="rotate(150 253.173 189.046)"/>
        <rect x="216.486" y="183.831" width="23.86" height="61.914" rx="6.486" transform="rotate(60 216.486 183.831)"/>
    </g>
    <g opacity=".2" fill="#EBEBEB">
        <rect x="210.456" y="177.6" width="23.86" height="61.914" rx="6.486" transform="rotate(150 210.456 177.6)"/>
        <rect x="173.769" y="172.385" width="23.86" height="61.914" rx="6.486" transform="rotate(60 173.769 172.385)"/>
    </g>
    <g opacity=".2" fill="#EBEBEB">
        <rect x="167.739" y="166.154" width="23.86" height="61.914" rx="6.486" transform="rotate(150 167.739 166.154)"/>
        <rect x="131.052" y="160.939" width="23.86" height="61.914" rx="6.486" transform="rotate(60 131.052 160.939)"/>
    </g>
    <g opacity=".2" fill="#EBEBEB">
        <rect x="125.022" y="154.708" width="23.86" height="61.914" rx="6.486" transform="rotate(150 125.022 154.708)"/>
        <rect x="88.335" y="149.493" width="23.86" height="61.914" rx="6.486" transform="rotate(60 88.335 149.493)"/>
    </g>
    <g opacity=".2" fill="#EBEBEB">
        <rect x="82.304" y="143.262" width="23.86" height="61.914" rx="6.486" transform="rotate(150 82.304 143.262)"/>
        <rect x="45.618" y="138.047" width="23.86" height="61.914" rx="6.486" transform="rotate(60 45.618 138.047)"/>
    </g>
    <g opacity=".2" fill="#EBEBEB">
        <rect x="39.587" y="131.816" width="23.86" height="61.914" rx="6.486" transform="rotate(150 39.587 131.816)"/>
        <rect x="2.901" y="126.601" width="23.86" height="61.914" rx="6.486" transform="rotate(60 2.9 126.601)"/>
    </g>
</svg>
