<svg width="96" height="96" viewBox="0 0 96 96" fill="none" xmlns="http://www.w3.org/2000/svg">
<rect width="96" height="96" rx="48" fill="#2C3590"/>
<path opacity="0.2" d="M45.9091 51.1111L35 45.8889L46.5909 62L65 37L45.9091 51.1111Z" fill="white"/>
<path d="M45.9091 51.1111L35 45.8889L46.5909 62L65 37L45.9091 51.1111Z" stroke="white" stroke-width="2" stroke-linecap="round" stroke-linejoin="round"/>
<path d="M48 21L23 30C21.6667 44.6667 26.4 74.7 48 77.5" stroke="white" stroke-width="2" stroke-linecap="round" stroke-linejoin="round"/>
<path d="M48 21L72.7945 29.9279C74.1169 44.4625 69.4224 74.7252 48 77.5" stroke="white" stroke-width="2" stroke-linecap="round" stroke-linejoin="round"/>
<path d="M48.0165 16.5784L19.033 26.8531C17.4872 43.8567 22.9748 78.6756 48.0165 81.9217" stroke="white" stroke-width="2" stroke-linecap="round" stroke-linejoin="round"/>
<path d="M48.0165 16.5784L76.7617 26.7695C78.2948 43.62 72.8524 78.7048 48.0165 81.9217" stroke="white" stroke-width="2" stroke-linecap="round" stroke-linejoin="round"/>
</svg>
